<svg xmlns="http://www.w3.org/2000/svg" version="1.1" id="svg2" xml:space="preserve" width="26.667" height="26.667" viewBox="0 0 26.667 26.667"><defs id="defs6"><clipPath clipPathUnits="userSpaceOnUse" id="clipPath20"><path d="M0 1080h1920V0H0z" id="path18"/></clipPath><clipPath clipPathUnits="userSpaceOnUse" id="clipPath44"><path d="M0 1080h1920V0H0z" id="path42"/></clipPath><clipPath clipPathUnits="userSpaceOnUse" id="clipPath194"><path d="M0 1080h1920V0H0z" id="path192"/></clipPath><clipPath clipPathUnits="userSpaceOnUse" id="clipPath556"><path d="M673.779 575.231h20.5v-20.5h-20.5z" id="path554"/></clipPath><clipPath clipPathUnits="userSpaceOnUse" id="clipPath570"><path d="M695.711 575.231h20.5v-20.5h-20.5z" id="path568"/></clipPath></defs><g id="g1111" transform="matrix(1.33333 0 0 -1.33333 -254.015 927.971)" display="inline" fill="#141113" fill-opacity="1" fill-rule="nonzero" stroke="none"><path id="path238" d="M200.511 677.313a8.666 8.666 0 100 17.333 8.667 8.667 0 000-17.333m0 18.666c-5.523 0-10-4.477-10-10 0-5.522 4.477-10 10-10s10 4.478 10 10c0 5.523-4.477 10-10 10"/><path id="path242" d="M201.178 692.313h-1.333v-7.334c0-.368.298-.666.666-.666h5.334v1.333h-4.667z"/></g></svg>