<svg xmlns="http://www.w3.org/2000/svg" viewBox="0 0 26.667 26.667" height="26.667" width="26.667" xml:space="preserve" id="svg2" version="1.1"><defs id="defs6"><clipPath id="clipPath20" clipPathUnits="userSpaceOnUse"><path id="path18" d="M0 1080h1920V0H0z"/></clipPath><clipPath id="clipPath44" clipPathUnits="userSpaceOnUse"><path id="path42" d="M0 1080h1920V0H0z"/></clipPath><clipPath id="clipPath194" clipPathUnits="userSpaceOnUse"><path id="path192" d="M0 1080h1920V0H0z"/></clipPath><clipPath id="clipPath556" clipPathUnits="userSpaceOnUse"><path id="path554" d="M673.779 575.231h20.5v-20.5h-20.5z"/></clipPath><clipPath id="clipPath570" clipPathUnits="userSpaceOnUse"><path id="path568" d="M695.711 575.231h20.5v-20.5h-20.5z"/></clipPath></defs><g id="g1344" fill="#141113" fill-opacity="1" fill-rule="nonzero" stroke="none" stroke-width="1.333"><path d="M13.333 1.777a8.01 8.01 0 00-8 8c0 6.34 6.052 12.843 8 14.77 1.947-1.93 8-8.439 8-14.77a8.01 8.01 0 00-8-8m0 24.89a.89.89 0 01-.594-.23c-.375-.337-9.183-8.358-9.183-16.66C3.556 4.377 7.933 0 13.333 0c5.4 0 9.778 4.377 9.778 9.777 0 8.302-8.808 16.323-9.183 16.66a.892.892 0 01-.595.23" id="path230"/><path d="M13.333 7.11a2.667 2.667 0 100 5.334 2.667 2.667 0 000-5.333m0 7.11a4.444 4.444 0 110-8.887 4.444 4.444 0 010 8.887" id="path234"/></g></svg>