<svg xmlns="http://www.w3.org/2000/svg" width="133.164" height="34.952" viewBox="0 0 133.164 34.952">
  <g id="Grupo_12515" data-name="Grupo 12515" transform="translate(0 0)">
    <g id="Grupo_349" data-name="Grupo 349" transform="translate(0 0)">
      <g id="Grupo_347" data-name="Grupo 347" transform="translate(0 2.637)">
        <path id="Trazado_104" data-name="Trazado 104" d="M46.8,219.935q3.41,0,6.82,0c.421,0,.985-.088.958.551-.023.537-.542.48-.934.48q-6.874,0-13.748,0c-.421,0-.978.062-.953-.571.022-.571.552-.455.929-.456C42.186,219.932,44.5,219.936,46.8,219.935Z" transform="translate(-38.947 -214.316)" fill="#4b94f2"/>
        <path id="Trazado_105" data-name="Trazado 105" d="M71.681,230.111q3.227-1.1,6.455-2.2c.4-.135.9-.4,1.084.212.152.516-.358.629-.729.756q-6.5,2.224-13.012,4.436c-.4.136-.905.374-1.086-.233-.163-.548.376-.609.732-.732Q68.4,231.222,71.681,230.111Z" transform="translate(-60.985 -221.085)" fill="#4b94f2"/>
        <path id="Trazado_106" data-name="Trazado 106" d="M71.931,180.04q3.238,1.068,6.476,2.139c.4.133.963.225.737.823-.19.5-.665.286-1.037.163q-6.529-2.149-13.055-4.31c-.4-.133-.948-.248-.726-.841.2-.535.667-.259,1.025-.142Q68.644,178.948,71.931,180.04Z" transform="translate(-60.908 -177.697)" fill="#4b94f2"/>
      </g>
      <g id="Grupo_348" data-name="Grupo 348" transform="translate(29.926 2.585)">
        <path id="Trazado_107" data-name="Trazado 107" d="M291.805,221.514q-3.41,0-6.82,0c-.421,0-.985.088-.958-.551.023-.537.542-.48.934-.48,4.582,0,39.722,0,44.3,0,.421,0,.978-.062.953.571-.022.571-.552.455-.929.456C326.98,221.517,294.114,221.513,291.805,221.514Z" transform="translate(-281.375 -214.739)" fill="#4b94f2"/>
        <path id="Trazado_108" data-name="Trazado 108" d="M271.83,180.674q-3.227,1.1-6.455,2.2c-.4.135-.9.4-1.084-.212-.152-.516.358-.629.728-.756q6.5-2.224,13.012-4.436c.4-.136.906-.374,1.086.233.163.548-.375.609-.732.731Q275.111,179.563,271.83,180.674Z" transform="translate(-264.239 -177.307)" fill="#4b94f2"/>
        <path id="Trazado_109" data-name="Trazado 109" d="M271.344,231.526q-3.238-1.068-6.476-2.139c-.4-.133-.963-.225-.737-.823.19-.5.665-.286,1.037-.163q6.529,2.149,13.055,4.31c.4.133.948.247.726.841-.2.535-.667.259-1.025.142Q274.631,232.618,271.344,231.526Z" transform="translate(-264.08 -221.476)" fill="#4b94f2"/>
      </g>
      <path id="Trazado_110" data-name="Trazado 110" d="M188.515,227.455a2.787,2.787,0,0,1-1.12,2.66.48.48,0,0,1-.709-.144c-.854-1.5-2.355-1.788-4-1.777-1.6.011-3.066.313-3.889,1.774a.481.481,0,0,1-.709.149,2.777,2.777,0,0,1-1.125-2.661.487.487,0,0,1,.1-.244,7.122,7.122,0,0,1,4.173-2.487,6.947,6.947,0,0,1,3,0,7.1,7.1,0,0,1,4.175,2.486A.488.488,0,0,1,188.515,227.455Z" transform="translate(-158.601 -215.695)" fill="#f24405"/>
      <path id="Trazado_111" data-name="Trazado 111" d="M212.241,213.39a6.946,6.946,0,0,0-3,0c-.023-1.018.327-1.791,1.446-1.895C211.607,211.408,212.146,212.11,212.241,213.39Z" transform="translate(-186.6 -204.358)" fill="#4b94f2"/>
      <path id="Trazado_112" data-name="Trazado 112" d="M184.235,261.341a1.533,1.533,0,0,0-.17-.537c-.9-1.687-2.539-1.882-3.978-1.882s-3.056.193-3.963,1.854a1.67,1.67,0,0,0-.189.6l-2.044,16.761a.876.876,0,0,0,.61.942l3.254,1.01a7.869,7.869,0,0,0,4.665,0l3.245-1.007a.887.887,0,0,0,.617-.954Zm-5.482,3.139c.041-.463.064-.93.142-1.388a1.2,1.2,0,0,1,2.373-.032,13.672,13.672,0,0,1,.148,1.387c.135,1.488.134,1.488-1.367,1.487C178.627,265.932,178.625,265.931,178.753,264.479Zm2.313,8.753c-.645,0-1.29,0-1.935,0-.424,0-.562-.268-.553-.63.01-.393.057-.786.088-1.178l-.03,0a10.027,10.027,0,0,1,.142-1.385,1.3,1.3,0,0,1,1.292-1.092,1.228,1.228,0,0,1,1.3,1.069,24.467,24.467,0,0,1,.216,2.67A.475.475,0,0,1,181.066,273.232Z" transform="translate(-155.947 -245.487)" fill="#f24405"/>
      <path id="Trazado_113" data-name="Trazado 113" d="M194.276,161.282c-1.505-1.1-1.525-1.074-1.938-2.856-.071-.307-.206-.525-.485-.567-.279.042-.414.259-.486.567-.413,1.783-.433,1.761-1.938,2.856a4.064,4.064,0,0,0-1.941,2.609,6.224,6.224,0,0,1,4.257-2.008h.216a6.224,6.224,0,0,1,4.257,2.008A4.063,4.063,0,0,0,194.276,161.282Z" transform="translate(-167.743 -157.859)" fill="#f24405"/>
      <path id="Trazado_114" data-name="Trazado 114" d="M196.061,190.134a6.233,6.233,0,0,0-4.257-2h-.216a6.234,6.234,0,0,0-4.257,2c-.181.925.707,1.2,1.116,1.759.19.26.2-.142.265-.242a3.721,3.721,0,0,1,5.968,0c.068.1.074.5.265.242C195.353,191.336,196.242,191.059,196.061,190.134Z" transform="translate(-167.587 -184.109)" fill="#4b94f2"/>
    </g>
    <g id="Grupo_350" data-name="Grupo 350" transform="translate(35.513 18.614)">
      <path id="Trazado_115" data-name="Trazado 115" d="M313.393,320.689a11.478,11.478,0,0,1-2.731-.324,9.263,9.263,0,0,1-2.48-.994,8.551,8.551,0,0,1-2.072-1.7l2.428-2.888a6.509,6.509,0,0,0,1.4,1.193,7.928,7.928,0,0,0,1.7.827,5.074,5.074,0,0,0,1.653.3,1.617,1.617,0,0,0,.617-.094.749.749,0,0,0,.324-.241.562.562,0,0,0,.1-.335.463.463,0,0,0-.22-.387,2.883,2.883,0,0,0-.722-.324l-1.946-.691a7.783,7.783,0,0,1-1.632-.827,4.085,4.085,0,0,1-1.256-1.308,3.608,3.608,0,0,1-.481-1.9,4.063,4.063,0,0,1,.8-2.585,4.754,4.754,0,0,1,2.156-1.518,8.776,8.776,0,0,1,3.056-.5,9.131,9.131,0,0,1,3.83.722,9.985,9.985,0,0,1,2.784,1.894l-2.574,2.8a6.7,6.7,0,0,0-1.172-.931,6.047,6.047,0,0,0-1.36-.638,4.668,4.668,0,0,0-1.444-.23,2.059,2.059,0,0,0-.555.063.637.637,0,0,0-.324.188.473.473,0,0,0-.1.314.507.507,0,0,0,.314.429,5.55,5.55,0,0,0,.837.366l1.779.628a6.2,6.2,0,0,1,2.48,1.475,3.416,3.416,0,0,1,.869,2.459,4.188,4.188,0,0,1-.8,2.574,4.947,4.947,0,0,1-2.156,1.622A8.154,8.154,0,0,1,313.393,320.689Z" transform="translate(-306.11 -305.264)" fill="#11468c"/>
      <path id="Trazado_116" data-name="Trazado 116" d="M424.049,333.826a4.239,4.239,0,0,0-1.81-1.643,6.4,6.4,0,0,0-2.888-.6,6.733,6.733,0,0,0-3.254.753,5.309,5.309,0,0,0-2.156,2.124,6.491,6.491,0,0,0-.764,3.213,4.377,4.377,0,0,0,2.689,4.207,6.991,6.991,0,0,0,2.878.565,8.556,8.556,0,0,0,2.407-.324,5.548,5.548,0,0,0,1.9-.952,3.328,3.328,0,0,0,1.109-1.507l-4.019-1.3a1.569,1.569,0,0,1-.429.659,1.2,1.2,0,0,1-.848.283,1.766,1.766,0,0,1-.68-.126.946.946,0,0,1-.471-.419,1.552,1.552,0,0,1-.167-.774c0-.014,0-.028,0-.042h6.906a4.472,4.472,0,0,0,.167-.858q.042-.44.042-.837A4.691,4.691,0,0,0,424.049,333.826Zm-5.672,1.235a1.272,1.272,0,0,1,.89-.314.923.923,0,0,1,.419.094.7.7,0,0,1,.3.314,1.355,1.355,0,0,1,.115.617q0,.168-.01.356c0,.013,0,.027,0,.042h-2.328c.028-.1.058-.2.092-.293A1.962,1.962,0,0,1,418.377,335.061Z" transform="translate(-398.944 -327.108)" fill="#11468c"/>
      <path id="Trazado_117" data-name="Trazado 117" d="M506.654,331.639a2.732,2.732,0,0,0-.586-.052,3.494,3.494,0,0,0-2.02.565,4.205,4.205,0,0,0-1.35,1.57,9.06,9.06,0,0,0-.377.825l.523-2.75h-4.332l-2.428,10.465H500.9l.984-4.27a3.865,3.865,0,0,1,.659-1.486,2.544,2.544,0,0,1,.984-.785,2.792,2.792,0,0,1,1.12-.241,3.847,3.847,0,0,1,.775.063,2.117,2.117,0,0,1,.5.168l1.109-3.935A1.4,1.4,0,0,0,506.654,331.639Z" transform="translate(-470.831 -327.108)" fill="#11468c"/>
      <path id="Trazado_118" data-name="Trazado 118" d="M590.738,333.161l-2.78,7.325.185-7.325h-4.73l.942,10.465h5.986l5.8-10.465Z" transform="translate(-546.552 -328.473)" fill="#11468c"/>
      <path id="Trazado_119" data-name="Trazado 119" d="M672.685,302.581l-2.428,10.465h-4.814l2.428-10.465Zm-2.051-.67a3.212,3.212,0,0,1-1.831-.44,1.408,1.408,0,0,1-.471-1.507,2.233,2.233,0,0,1,.827-1.622,3.439,3.439,0,0,1,1.936-.45,3.245,3.245,0,0,1,1.873.45,1.332,1.332,0,0,1,.471,1.434,2.236,2.236,0,0,1-.848,1.706A3.686,3.686,0,0,1,670.634,301.911Z" transform="translate(-617.678 -297.893)" fill="#11468c"/>
      <path id="Trazado_120" data-name="Trazado 120" d="M724.338,342.47a7.242,7.242,0,0,1-3.066-.6A4.48,4.48,0,0,1,719.3,340.2a4.584,4.584,0,0,1-.68-2.5,6.545,6.545,0,0,1,.712-3.024,5.5,5.5,0,0,1,2.124-2.24,6.752,6.752,0,0,1,3.527-.848,7.138,7.138,0,0,1,2.815.513,4.23,4.23,0,0,1,1.863,1.454,3.534,3.534,0,0,1,.6,2.26l-4.521.628a2.34,2.34,0,0,0,0-1.172q-.147-.419-.753-.419a.971.971,0,0,0-.753.356,2.964,2.964,0,0,0-.523.889,5.933,5.933,0,0,0-.314,1.109,5.74,5.74,0,0,0-.1,1.015,1.266,1.266,0,0,0,.125.607.705.705,0,0,0,.345.324,1.237,1.237,0,0,0,.492.094.983.983,0,0,0,.743-.356,2.135,2.135,0,0,0,.471-.9l4.207,1.319a5.036,5.036,0,0,1-2,2.3A6.17,6.17,0,0,1,724.338,342.47Z" transform="translate(-663.79 -327.108)" fill="#11468c"/>
      <path id="Trazado_121" data-name="Trazado 121" d="M820.817,333.826a4.239,4.239,0,0,0-1.81-1.643,6.4,6.4,0,0,0-2.888-.6,6.734,6.734,0,0,0-3.255.753,5.309,5.309,0,0,0-2.156,2.124,6.491,6.491,0,0,0-.764,3.213,4.378,4.378,0,0,0,2.69,4.207,6.99,6.99,0,0,0,2.878.565,8.555,8.555,0,0,0,2.407-.324,5.549,5.549,0,0,0,1.9-.952,3.328,3.328,0,0,0,1.109-1.507l-4.018-1.3a1.568,1.568,0,0,1-.429.659,1.2,1.2,0,0,1-.848.283,1.767,1.767,0,0,1-.68-.126.947.947,0,0,1-.471-.419,1.553,1.553,0,0,1-.167-.774c0-.014,0-.028,0-.042h6.906a4.458,4.458,0,0,0,.167-.858q.042-.44.042-.837A4.691,4.691,0,0,0,820.817,333.826Zm-3.956,2.3c0,.013,0,.027,0,.042H814.53c.028-.1.058-.2.092-.293a1.963,1.963,0,0,1,.523-.816,1.271,1.271,0,0,1,.889-.314.923.923,0,0,1,.419.094.7.7,0,0,1,.3.314,1.355,1.355,0,0,1,.115.617C816.872,335.885,816.868,336,816.861,336.129Z" transform="translate(-742.971 -327.108)" fill="#11468c"/>
    </g>
    <g id="Grupo_351" data-name="Grupo 351" transform="translate(119.183 19.954)">
      <path id="Trazado_122" data-name="Trazado 122" d="M936.141,307.969v13.813h-.586V307.969Z" transform="translate(-935.555 -307.969)" fill="#11468c"/>
      <path id="Trazado_123" data-name="Trazado 123" d="M969.057,307.969v.523h-5.191v13.29h-.586v-13.29h-5.211v-.523Z" transform="translate(-955.076 -307.969)" fill="#11468c"/>
    </g>
  </g>
</svg>
