<svg xmlns="http://www.w3.org/2000/svg" width="103.66" height="85.593" viewBox="0 0 103.66 85.593">
  <g id="Grupo_12536" data-name="Grupo 12536" transform="translate(20240.41 -12039)">
    <g id="Grupo_12532" data-name="Grupo 12532" transform="translate(-20199.135 12039)">
      <path id="Trazado_171" data-name="Trazado 171" d="M62.464,0h-3.6V3.173h3.606c0-.031,0-.07,0-.1Z" transform="translate(-42.749)" fill="#fdefd1"/>
      <rect id="Rectángulo_833" data-name="Rectángulo 833" width="3.633" height="3.225" transform="translate(10.835 0.019)" fill="#fdefd1"/>
      <path id="Trazado_172" data-name="Trazado 172" d="M64.3,8.218H67.88l.107,0V4.829H64.3Z" transform="translate(-42.886 -0.121)" fill="#fdefd1"/>
      <path id="Trazado_173" data-name="Trazado 173" d="M47.9,8.35h3.7V4.922H47.9Z" transform="translate(-42.475 -0.123)" fill="#fdefd1"/>
      <path id="Trazado_174" data-name="Trazado 174" d="M69.86,9.974v3.557h3.728V9.974Z" transform="translate(-43.025 -0.25)" fill="#fdefd1"/>
      <path id="Trazado_175" data-name="Trazado 175" d="M42.335,10.122V13.7h3.7V10.12l-.04,0Z" transform="translate(-42.335 -0.254)" fill="#fdefd1"/>
    </g>
    <g id="Grupo_12533" data-name="Grupo 12533" transform="translate(-20199.322 12043.687)">
      <path id="Trazado_176" data-name="Trazado 176" d="M58.833,7.988v.162H62.5V4.807H58.833Z" transform="translate(-42.562 -4.807)" fill="#fdd68a"/>
      <path id="Trazado_177" data-name="Trazado 177" d="M53.336,8.208h3.686V4.826H53.336Z" transform="translate(-42.424 -4.808)" fill="#fdd68a"/>
      <rect id="Rectángulo_834" data-name="Rectángulo 834" width="3.73" height="3.531" transform="translate(21.657 4.946)" fill="#fdd68a"/>
      <path id="Trazado_178" data-name="Trazado 178" d="M47.734,9.959V13.52h3.726V9.959H47.734Z" transform="translate(-42.283 -4.936)" fill="#fdd68a"/>
      <path id="Trazado_179" data-name="Trazado 179" d="M70.044,15.226h-.07v2.841a38.823,38.823,0,0,1,3.754-1.3V15.226Z" transform="translate(-42.841 -5.068)" fill="#fdd68a"/>
      <path id="Trazado_180" data-name="Trazado 180" d="M42.143,16.744a38.491,38.491,0,0,1,3.713,1.286V15.343H42.143Z" transform="translate(-42.143 -5.071)" fill="#fdd68a"/>
    </g>
    <g id="Grupo_12534" data-name="Grupo 12534" transform="translate(-20240.41 12046.46)">
      <path id="Trazado_181" data-name="Trazado 181" d="M103.872,65.006a2.341,2.341,0,1,0,2.336,2.344,2.343,2.343,0,0,0-2.336-2.344" transform="translate(-2.546 -9.089)" fill="#a4b5d7"/>
      <path id="Trazado_182" data-name="Trazado 182" d="M77.763,81.782A2.34,2.34,0,1,0,80.1,84.124a2.341,2.341,0,0,0-2.341-2.342" transform="translate(-1.891 -9.51)" fill="#a4b5d7"/>
      <path id="Trazado_183" data-name="Trazado 183" d="M43.716,81.782a2.834,2.834,0,1,0,2.833,2.833,2.83,2.83,0,0,0-2.833-2.833" transform="translate(-1.025 -9.51)" fill="#a4b5d7"/>
      <path id="Trazado_184" data-name="Trazado 184" d="M11.429,56.976a3.564,3.564,0,1,0,3.565,3.563,3.563,3.563,0,0,0-3.565-3.563" transform="translate(-0.197 -8.888)" fill="#a4b5d7"/>
      <path id="Trazado_185" data-name="Trazado 185" d="M3.566,7.651a3.565,3.565,0,1,0,3.561,3.564A3.565,3.565,0,0,0,3.566,7.651" transform="translate(0 -7.651)" fill="#a4b5d7"/>
    </g>
    <rect id="Rectángulo_2336" data-name="Rectángulo 2336" width="3.717" height="3.489" transform="translate(-20183.076 12048.617)" fill="#fab816"/>
    <path id="Trazado_2060" data-name="Trazado 2060" d="M53.244,13.4H56.97V9.88H53.244v3.471c0,.016,0,.033,0,.049Z" transform="translate(-20241.746 12038.754)" fill="#fab816"/>
    <path id="Trazado_2061" data-name="Trazado 2061" d="M68.169,15.151H64.408v3.641h3.761Z" transform="translate(-20242.023 12038.621)" fill="#fab816"/>
    <path id="Trazado_2062" data-name="Trazado 2062" d="M62.546,18.555v-3.42H58.8v3.611h3.75Z" transform="translate(-20241.885 12038.621)" fill="#fab816"/>
    <rect id="Rectángulo_2337" data-name="Rectángulo 2337" width="3.76" height="3.639" transform="translate(-20188.578 12053.771)" fill="#fab816"/>
    <path id="Trazado_2063" data-name="Trazado 2063" d="M51.354,18.881V15.217H47.6v3.515c.1.051.21.1.314.149Z" transform="translate(-20241.604 12038.618)" fill="#fab816"/>
    <path id="Trazado_2064" data-name="Trazado 2064" d="M62.562,20.591H58.781v3.561c.7-.486,1.894-1.271,3.781-2.347Z" transform="translate(-20241.883 12038.484)" fill="#fab816"/>
    <path id="Trazado_2065" data-name="Trazado 2065" d="M56.894,20.6H53.111v1.087c1.86,1.058,3.062,1.846,3.783,2.354Z" transform="translate(-20241.742 12038.483)" fill="#fab816"/>
    <path id="Trazado_2066" data-name="Trazado 2066" d="M3.686,17.234H3.678a6.137,6.137,0,0,1-2.5-.5A57.593,57.593,0,0,0,6.815,55.275a4.84,4.84,0,0,1,2.494-1.52A56.458,56.458,0,0,1,3.686,17.234" transform="translate(-20240.412 12038.581)" fill="#fab816"/>
    <path id="Trazado_2067" data-name="Trazado 2067" d="M16.07,64.554a4.817,4.817,0,0,1-2.383,1.632,57.71,57.71,0,0,0,25.23,17.676,4.255,4.255,0,0,1,.674-2.383A56.463,56.463,0,0,1,16.07,64.554" transform="translate(-20240.752 12037.383)" fill="#fab816"/>
    <path id="Trazado_2068" data-name="Trazado 2068" d="M47.851,84.244a4.591,4.591,0,0,1-.3,2.269A57.662,57.662,0,0,0,73.4,85.937a4.881,4.881,0,0,1-.39-1.577,56.381,56.381,0,0,1-25.156-.116" transform="translate(-20241.604 12036.888)" fill="#fab816"/>
    <path id="Trazado_2069" data-name="Trazado 2069" d="M81.363,81.782a4.608,4.608,0,0,1,.5,1.281,58.272,58.272,0,0,0,18.9-12.432,3.784,3.784,0,0,1-.532-.489A56.977,56.977,0,0,1,81.363,81.782" transform="translate(-20242.451 12037.241)" fill="#fab816"/>
    <rect id="Rectángulo_2338" data-name="Rectángulo 2338" width="4.174" height="2.079" transform="translate(-20171.617 12105.483)" fill="#1c4a9f"/>
    <path id="Trazado_2070" data-name="Trazado 2070" d="M58.086,35.985V58.7h.01l0,4.172h-.012V67.04H58.1v4.172h7.982V67.037H70.25l0-4.173h4.179v4.173l4.168,0,0-2.09h4.14v-2.09H78.593l0-4.184H82.75l.007,4.184h4.666L95.134,22.1s-12.957.7-23.485,5.977-13.565,8-13.563,7.91m8,31.048H61.91V62.864h4.172Z" transform="translate(-20241.867 12038.447)" fill="#1c4a9f"/>
    <g id="Grupo_12535" data-name="Grupo 12535" transform="translate(-20220.801 12053.589)">
      <rect id="Rectángulo_840" data-name="Rectángulo 840" width="4.16" height="4.166" transform="translate(32.858 47.731)" fill="#5f799f"/>
      <rect id="Rectángulo_841" data-name="Rectángulo 841" width="4.169" height="4.172" transform="translate(28.688 51.897)" fill="#5f799f"/>
      <path id="Trazado_208" data-name="Trazado 208" d="M69.75,20.492c-9.733,4.872-12.535,7.394-12.535,7.312,0,0-2.806-2.524-12.538-7.394S23,14.964,23,14.964l.781,3.868c4.584.561,12.77,2,19.868,5.552,10.529,5.273,13.561,8,13.561,8,0,.088,3.032-2.641,13.563-7.911,7.133-3.573,15.379-5.049,19.958-5.63l.737-3.882s-11.98.655-21.713,5.528" transform="translate(-20.187 -14.964)" fill="#5f799f"/>
      <path id="Trazado_209" data-name="Trazado 209" d="M20.115,22.1l7.4,36.585h4.609l0,4.175,4.171,0V58.683h4.17V54.516l4.172,0v4.164H40.461v4.175l-4.17,0v4.167l4.168,0,0,2.085,4.172,0V67.04H48.8V62.874h4.17V58.7h4.161V35.985s-3.032-2.726-13.563-8S20.115,22.1,20.115,22.1" transform="translate(-20.115 -15.143)" fill="#5f799f"/>
    </g>
  </g>
</svg>
