<svg id="Grupo_802" data-name="Grupo 802" xmlns="http://www.w3.org/2000/svg" width="41.494" height="65.941" viewBox="0 0 41.494 65.941">
  <g id="Grupo_826" data-name="Grupo 826" transform="translate(0)">
    <path id="Trazado_459" data-name="Trazado 459" d="M89.05,0H87.623V1.257h1.428V0Z" transform="translate(-64.899)" fill="#ffefd1"/>
    <rect id="Rectángulo_799" data-name="Rectángulo 799" width="1.438" height="1.277" transform="translate(20.635 0.007)" fill="#ffefd1"/>
    <path id="Trazado_460" data-name="Trazado 460" d="M95.727,8.53h1.46V7.188h-1.46Z" transform="translate(-70.901 -5.324)" fill="#ffefd1"/>
    <path id="Trazado_461" data-name="Trazado 461" d="M71.308,8.686h1.465V7.328H71.308Z" transform="translate(-52.816 -5.428)" fill="#ffefd1"/>
    <path id="Trazado_462" data-name="Trazado 462" d="M104,14.847h0v1.41h1.477v-1.41Z" transform="translate(-77.03 -10.996)" fill="#ffefd1"/>
    <path id="Trazado_463" data-name="Trazado 463" d="M64.488,15.063H63.023v1.42h1.466v-1.42h0Z" transform="translate(-46.679 -11.157)" fill="#ffefd1"/>
    <path id="Trazado_464" data-name="Trazado 464" d="M87.585,8.419v.064h1.451V7.157H87.585Z" transform="translate(-64.872 -5.301)" fill="#fcd589"/>
    <path id="Trazado_465" data-name="Trazado 465" d="M79.4,8.525h1.46V7.186H79.4Z" transform="translate(-58.81 -5.322)" fill="#fcd589"/>
    <rect id="Rectángulo_800" data-name="Rectángulo 800" width="1.477" height="1.398" transform="translate(24.848 3.815)" fill="#fcd589"/>
    <path id="Trazado_466" data-name="Trazado 466" d="M71.065,14.828v1.41h1.472v-1.41Z" transform="translate(-52.636 -10.982)" fill="#fcd589"/>
    <path id="Trazado_467" data-name="Trazado 467" d="M104.2,22.664h-.027V23.79a15.645,15.645,0,0,1,1.485-.514v-.611Z" transform="translate(-77.159 -16.785)" fill="#fcd589"/>
    <path id="Trazado_468" data-name="Trazado 468" d="M62.744,23.4a15.277,15.277,0,0,1,1.472.509V22.844H62.744Z" transform="translate(-46.473 -16.92)" fill="#fcd589"/>
    <g id="Grupo_822" data-name="Grupo 822" transform="translate(0 2.954)">
      <path id="Trazado_469" data-name="Trazado 469" d="M152.077,96.778a.927.927,0,1,0,.926.927.927.927,0,0,0-.926-.927" transform="translate(-111.952 -74.634)" fill="#a3b5d6"/>
      <path id="Trazado_470" data-name="Trazado 470" d="M113.207,121.752a.926.926,0,1,0,.926.928.926.926,0,0,0-.926-.928" transform="translate(-83.162 -93.131)" fill="#a3b5d6"/>
      <path id="Trazado_471" data-name="Trazado 471" d="M61.986,121.752a1.122,1.122,0,1,0,1.121,1.122,1.122,1.122,0,0,0-1.121-1.122" transform="translate(-45.08 -93.131)" fill="#a3b5d6"/>
      <path id="Trazado_472" data-name="Trazado 472" d="M13.12,84.822a1.411,1.411,0,1,0,1,.413,1.411,1.411,0,0,0-1-.413" transform="translate(-8.674 -65.779)" fill="#a3b5d6"/>
      <path id="Trazado_473" data-name="Trazado 473" d="M1.412,11.393a1.411,1.411,0,1,0,1,.413,1.411,1.411,0,0,0-1-.413" transform="translate(-0.001 -11.393)" fill="#a3b5d6"/>
    </g>
    <g id="Grupo_823" data-name="Grupo 823" transform="translate(7.766 5.781)">
      <path id="Trazado_474" data-name="Trazado 474" d="M52.747,24.467a30.514,30.514,0,0,0-4.968,2.9,25.808,25.808,0,0,0-4.965-2.928,24.651,24.651,0,0,0-8.586-2.156l.311,1.532a25.268,25.268,0,0,1,7.867,2.2,27.847,27.847,0,0,1,5.37,3.168,33.153,33.153,0,0,1,5.371-3.131,25.748,25.748,0,0,1,7.9-2.23l.293-1.538a25.166,25.166,0,0,0-8.6,2.189" transform="translate(-33.12 -22.282)" fill="#5e78b2"/>
      <rect id="Rectángulo_801" data-name="Rectángulo 801" width="1.646" height="1.649" transform="translate(13.013 18.899)" fill="#5e78b2"/>
      <rect id="Rectángulo_802" data-name="Rectángulo 802" width="1.653" height="1.653" transform="translate(11.36 20.548)" fill="#5e78b2"/>
      <path id="Trazado_475" data-name="Trazado 475" d="M29.947,32.9l2.93,14.487H34.7V49.04h1.652V47.387H38V45.738h1.652v1.649H38v1.654H36.352v1.649H38v.825h1.652V50.7h1.651V49.047h1.653V47.393H44.6v-9a27.906,27.906,0,0,0-5.37-3.169,26.658,26.658,0,0,0-9.288-2.33" transform="translate(-29.947 -30.148)" fill="#5e78b2"/>
    </g>
    <g id="Grupo_824" data-name="Grupo 824" transform="translate(3.372 8.534)">
      <path id="Trazado_476" data-name="Trazado 476" d="M105.05,102.347H106.7v-.818h-1.652Z" transform="translate(-81.178 -83.729)" fill="#1c4a9e" fill-rule="evenodd"/>
      <path id="Trazado_477" data-name="Trazado 477" d="M91.288,49.042h1.653V50.7h1.653v-.828h1.635v-.83H94.593V47.38h1.645v1.657h1.849L101.144,32.9a27.143,27.143,0,0,0-9.3,2.371A32.914,32.914,0,0,0,86.471,38.4v9h0v1.653h0V50.7h0v1.653h3.162V50.7H91.29Zm-1.65,1.653H87.985V49.042h1.653Z" transform="translate(-67.418 -32.9)" fill="#1c4a9e" fill-rule="evenodd"/>
      <path id="Trazado_478" data-name="Trazado 478" d="M19.33,158.835a3.36,3.36,0,0,0,1.476-3.047c0-2.674-2.6-3.107-4.4-3.107H13v12.465a3.655,3.655,0,0,0,2.34.981h1.2c2.378,0,4.856-.707,4.856-3.776,0-2.3-1.043-3.085-2.066-3.516m-4.579-4.895h2.126c.865,0,2.3.137,2.3,1.848s-.532,2.576-2.044,2.576H14.75ZM16.5,164.871H14.75V159.6h2.084c2.126,0,2.833.628,2.833,2.752,0,1.887-.847,2.516-3.168,2.516" transform="translate(-13 -121.619)" fill="#1c4a9e" fill-rule="evenodd"/>
      <rect id="Rectángulo_803" data-name="Rectángulo 803" width="1.887" height="1.653" transform="translate(9.929 31.436)" fill="#1c4a9e"/>
      <path id="Trazado_479" data-name="Trazado 479" d="M51.056,166.48h-2.5v1.18h.805v4.579c0,2.362.394,3.7,1.145,4.6l1.3-.824c-.59-.747-.748-2.065-.748-3.777Z" transform="translate(-39.337 -131.838)" fill="#1c4a9e" fill-rule="evenodd"/>
      <path id="Trazado_480" data-name="Trazado 480" d="M69.13,156.084a3.885,3.885,0,0,0-2.2.668v-4.07c-1.063,0-1.671.433-1.671,1.317v12.133h4.051c1.554,0,3.8-.609,3.8-5.132,0-3.658-1.849-4.916-3.971-4.916m-.885,8.947H66.927v-4.148c0-2.557.157-3.638,2.2-3.638,2.181,0,2.3,1.3,2.3,3.756,0,2.636-.432,4.031-3.184,4.031" transform="translate(-51.705 -121.619)" fill="#1c4a9e" fill-rule="evenodd"/>
      <path id="Trazado_481" data-name="Trazado 481" d="M102.753,162.012v-9.634a1.477,1.477,0,0,0-1.65,1.472v8.159c0,2.361.572,3.814,1.494,4.6l1.277-.885c-.944-.788-1.121-2.025-1.121-3.717" transform="translate(-78.255 -121.393)" fill="#1c4a9e" fill-rule="evenodd"/>
      <path id="Trazado_482" data-name="Trazado 482" d="M116,166.48h-2.5v1.18h.806v4.579c0,2.362.393,3.7,1.14,4.6l1.3-.824c-.591-.747-.747-2.065-.747-3.777Z" transform="translate(-87.441 -131.838)" fill="#1c4a9e" fill-rule="evenodd"/>
      <rect id="Rectángulo_804" data-name="Rectángulo 804" width="1.887" height="1.653" transform="translate(26.772 31.436)" fill="#1c4a9e"/>
      <path id="Trazado_483" data-name="Trazado 483" d="M133.491,165.8c-2.065,0-3.892,1.2-3.892,4.837v.59c0,3.656,1.867,4.816,3.892,4.816,2.1,0,3.992-1.16,3.992-4.816v-.59c0-3.658-1.908-4.837-3.992-4.837m2.261,5.408c0,2.439-.082,3.68-2.261,3.68-2.005,0-2.183-1.238-2.183-3.68v-.551c0-2.438.118-3.68,2.183-3.68s2.261,1.24,2.261,3.68Z" transform="translate(-99.361 -131.333)" fill="#1c4a9e" fill-rule="evenodd"/>
    </g>
    <g id="Grupo_825" data-name="Grupo 825" transform="translate(0.011 3.807)">
      <path id="Trazado_484" data-name="Trazado 484" d="M95.886,22.556h0V24h1.488V22.556Z" transform="translate(-71.03 -20.514)" fill="#f9b715"/>
      <path id="Trazado_485" data-name="Trazado 485" d="M89.013,23.961h0V22.53H87.529v1.428h1.485Z" transform="translate(-64.84 -20.495)" fill="#f9b715"/>
      <rect id="Rectángulo_805" data-name="Rectángulo 805" width="1.491" height="1.441" transform="translate(20.513 2.04)" fill="#f9b715"/>
      <path id="Trazado_486" data-name="Trazado 486" d="M70.865,24.045l.126.06h1.361V22.654H70.865Z" transform="translate(-52.499 -20.587)" fill="#f9b715"/>
      <rect id="Rectángulo_806" data-name="Rectángulo 806" width="1.471" height="1.383" transform="translate(22.693)" fill="#f9b715"/>
      <path id="Trazado_487" data-name="Trazado 487" d="M79.266,16.081V16.1h1.472V14.706H79.266Z" transform="translate(-58.721 -14.699)" fill="#f9b715"/>
      <path id="Trazado_488" data-name="Trazado 488" d="M87.51,31.934v.128c.275-.193.75-.5,1.5-.93V30.65h-1.5Z" transform="translate(-64.826 -26.509)" fill="#f9b715"/>
      <path id="Trazado_489" data-name="Trazado 489" d="M79.064,31.092c.736.419,1.214.729,1.5.931V30.661h-1.5Z" transform="translate(-58.572 -26.517)" fill="#f9b715"/>
      <path id="Trazado_490" data-name="Trazado 490" d="M1.493,25.1h0a2.421,2.421,0,0,1-.994-.2A22.824,22.824,0,0,0,2.731,40.17a1.932,1.932,0,0,1,.988-.6A22.353,22.353,0,0,1,1.493,25.1" transform="translate(-0.046 -22.254)" fill="#f9b715"/>
      <path id="Trazado_491" data-name="Trazado 491" d="M30.634,102.805A22.364,22.364,0,0,1,21.32,96.1a1.9,1.9,0,0,1-.942.647,22.841,22.841,0,0,0,9.99,7,1.694,1.694,0,0,1,.266-.944" transform="translate(-15.105 -74.986)" fill="#f9b715"/>
      <path id="Trazado_492" data-name="Trazado 492" d="M80.875,125.464a22.337,22.337,0,0,1-9.962-.046,1.823,1.823,0,0,1-.119.9,22.831,22.831,0,0,0,10.234-.227,1.925,1.925,0,0,1-.153-.625" transform="translate(-52.446 -96.699)" fill="#f9b715"/>
      <path id="Trazado_493" data-name="Trazado 493" d="M128.6,104.423a22.6,22.6,0,0,1-7.469,4.61,1.861,1.861,0,0,1,.2.508,23.087,23.087,0,0,0,7.485-4.924,1.708,1.708,0,0,1-.212-.194" transform="translate(-89.727 -81.15)" fill="#f9b715"/>
      <path id="Trazado_494" data-name="Trazado 494" d="M20.736,220.043s-.741-2.137-1.085-3.343a5.137,5.137,0,0,0-1.62-2.585,2.733,2.733,0,0,0,1.741-2.822c0-2.568-2.017-3.171-4.24-3.171H13V219.91h1.482v-5.4h.913c1.724,0,2.208.482,2.793,2.361.585,1.862.654,2.069.654,2.069.209.688.638,1.1,1.9,1.1m-2.412-8.751c0,1.706-.775,2.12-2.535,2.12H14.481v-4.17h1.172c1.93,0,2.672.343,2.672,2.05" transform="translate(-9.64 -157.954)" fill="#f9b715" fill-rule="evenodd"/>
      <path id="Trazado_495" data-name="Trazado 495" d="M51.335,223.187c0-2.585-1.635-3.568-3.345-3.568-1.912,0-3.548,1.12-3.548,4.324,0,3.965,1.98,4.654,3.376,4.654a6.3,6.3,0,0,0,2.74-.482l-.344-.879a3.82,3.82,0,0,1-1.447.4c-2.535,0-2.809-1.362-2.809-3.568h4.187c.621,0,1.191-.414,1.191-.878m-1.483-.707c.035.327-.1.552-.724.552H45.975c.067-1.482.464-2.4,2.015-2.4,1.379,0,1.759.671,1.861,1.843" transform="translate(-32.929 -166.471)" fill="#f9b715" fill-rule="evenodd"/>
      <path id="Trazado_496" data-name="Trazado 496" d="M81.73,219.912V208.124H80.249v3.533a3.265,3.265,0,0,0-1.809-.568c-1.844,0-3.464,1.188-3.464,4.377,0,3.979,1.9,4.532,3.447,4.532a3.85,3.85,0,0,0,1.861-.483.823.823,0,0,0,.724.4Zm-1.482-1.38a5.467,5.467,0,0,1-1.568.483c-1.93,0-2.208-1.189-2.208-3.549,0-2.138.069-3.31,1.963-3.31,1.258,0,1.689.518,1.809,1.586Z" transform="translate(-55.543 -157.956)" fill="#f9b715" fill-rule="evenodd"/>
      <path id="Trazado_497" data-name="Trazado 497" d="M112.209,223.187c0-2.585-1.635-3.568-3.343-3.568-1.913,0-3.551,1.12-3.551,4.324,0,3.965,1.983,4.654,3.377,4.654a6.315,6.315,0,0,0,2.741-.482l-.345-.879a3.828,3.828,0,0,1-1.447.4c-2.535,0-2.81-1.362-2.81-3.568h4.188c.62,0,1.189-.414,1.189-.878m-1.483-.707c.034.327-.1.552-.725.552h-3.153c.069-1.482.466-2.4,2.017-2.4,1.378,0,1.757.671,1.861,1.843" transform="translate(-78.015 -166.471)" fill="#f9b715" fill-rule="evenodd"/>
      <path id="Trazado_498" data-name="Trazado 498" d="M141.116,226.166c0-1.791-1.326-2.359-3.206-2.806-1.412-.327-1.757-.534-1.757-1.208,0-1.1.311-1.532,1.74-1.532,1.362,0,1.655.409,1.862.963l1.24-.414c-.258-.722-.877-1.554-3.1-1.554-2.583,0-3.1,1.327-3.1,2.465,0,1.689,1.155,2.067,3.034,2.515,1.5.345,1.843.654,1.843,1.466,0,1.206-.327,1.554-1.825,1.554-1.345,0-1.534-.4-1.811-.862l-1.1.43c.517,1.087,1.517,1.414,2.914,1.414,2.824,0,3.271-1.379,3.271-2.431" transform="translate(-99.847 -166.47)" fill="#f9b715" fill-rule="evenodd"/>
    </g>
  </g>
</svg>
