<svg xmlns="http://www.w3.org/2000/svg" xmlns:xlink="http://www.w3.org/1999/xlink" width="43.951" height="14.927" viewBox="0 0 43.951 14.927">
  <defs>
    <clipPath id="clip-path">
      <rect id="Rectángulo_2225" data-name="Rectángulo 2225" width="43.951" height="14.927" fill="#11468c"/>
    </clipPath>
  </defs>
  <g id="Grupo_12515" data-name="Grupo 12515" transform="translate(0 0)">
    <g id="Grupo_12737" data-name="Grupo 12737" transform="translate(0 0)" clip-path="url(#clip-path)">
      <path id="Trazado_2110" data-name="Trazado 2110" d="M10.425,5.857,8.568,5.2a5.791,5.791,0,0,1-.874-.383.53.53,0,0,1-.328-.448.494.494,0,0,1,.109-.328.671.671,0,0,1,.339-.2,2.172,2.172,0,0,1,.579-.065,4.876,4.876,0,0,1,1.508.24,6.337,6.337,0,0,1,1.421.667,7.02,7.02,0,0,1,1.224.972l2.688-2.928A10.414,10.414,0,0,0,12.326.754a9.532,9.532,0,0,0-4-.754A9.169,9.169,0,0,0,5.136.525,4.965,4.965,0,0,0,2.885,2.109a4.243,4.243,0,0,0-.83,2.7,3.761,3.761,0,0,0,.5,1.989A4.262,4.262,0,0,0,3.869,8.163a8.113,8.113,0,0,0,1.7.863l2.032.721a3.007,3.007,0,0,1,.754.338.485.485,0,0,1,.23.4.588.588,0,0,1-.109.349.778.778,0,0,1-.339.251,1.681,1.681,0,0,1-.645.1,5.3,5.3,0,0,1-1.726-.317A8.282,8.282,0,0,1,4,10.01,6.778,6.778,0,0,1,2.535,8.764L0,11.78a8.938,8.938,0,0,0,2.163,1.77,9.687,9.687,0,0,0,2.59,1.038,12,12,0,0,0,2.852.338,8.518,8.518,0,0,0,3.235-.579,5.166,5.166,0,0,0,2.251-1.694,4.373,4.373,0,0,0,.831-2.688A3.568,3.568,0,0,0,13.015,7.4a6.477,6.477,0,0,0-2.59-1.541" transform="translate(0 0)" fill="#11468c"/>
      <path id="Trazado_2111" data-name="Trazado 2111" d="M41.135,6.6l-.7,3.06h2.754l-.175.372a2.031,2.031,0,0,1-.437.6,1.975,1.975,0,0,1-.7.426,2.846,2.846,0,0,1-.984.153,2.564,2.564,0,0,1-1.464-.371,2.059,2.059,0,0,1-.787-1.05,4.688,4.688,0,0,1-.24-1.574,6.265,6.265,0,0,1,.24-1.792,4.472,4.472,0,0,1,.667-1.388,3.176,3.176,0,0,1,.984-.9,2.372,2.372,0,0,1,1.191-.317,1.541,1.541,0,0,1,1.3.525,2.052,2.052,0,0,1,.4,1.29l4.721-.7a4.976,4.976,0,0,0-.972-2.622A5.455,5.455,0,0,0,44.719.6,7.857,7.857,0,0,0,41.55,0a8.808,8.808,0,0,0-3.5.655,7.188,7.188,0,0,0-2.579,1.836,8.133,8.133,0,0,0-1.6,2.732,10.006,10.006,0,0,0-.546,3.344,6.937,6.937,0,0,0,.765,3.355A5.482,5.482,0,0,0,36.173,14.1a5.784,5.784,0,0,0,2.972.765,5.238,5.238,0,0,0,2.163-.4,3.847,3.847,0,0,0,1.5-1.191c.017-.022.032-.047.048-.07l-.321,1.447h3.234L47.822,6.6Z" transform="translate(-18.208 0)" fill="#11468c"/>
      <path id="Trazado_2112" data-name="Trazado 2112" d="M76.9.481h-6.12L62.713,14.906h5.2l1.421-2.885h4.022l.065,2.885h4.786ZM70.909,8.852,73.2,4.043l.066,4.808Z" transform="translate(-34.258 -0.263)" fill="#11468c"/>
    </g>
  </g>
</svg>
